{"title":"Balwinder Singh Famous Ho Gaya 2014  Hindi DVDSCRRip GOPI SAHI P","uid":11109970,"size":733593025,"categoryP":"video","categoryS":"movies","magnet":"?xt=urn:btih:ae0f7cc9d016ccb8512c8339ded4a66d0e52934b&amp;dn=Balwinder+Singh+Famous+Ho+Gaya+2014++Hindi+DVDSCRRip+GOPI+SAHI+P&amp;tr=udp%3A%2F%2Ftracker.openbittorrent.com%3A80&amp;tr=udp%3A%2F%2Fopen.demonii.com%3A1337&amp;tr=udp%3A%2F%2Ftracker.coppersurfer.tk%3A6969&amp;tr=udp%3A%2F%2Fexodus.desync.com%3A6969","seeders":1,"leechers":1,"uploader":"jatt13","files":1,"time":1411778258,"description":"Video\nID                             : 1\nFormat                         : AVC\nFormat/Info                    : Advanced Video Codec\nFormat profile                 : &lt;a class=&quot;__cf_email__&quot; href=&quot;/cdn-cgi/l/email-protection&quot; data-cfemail=&quot;155d7c727d5559213b24&quot;&gt;[email&amp;#160;protected]&lt;/a&gt;&lt;script data-cfhash='f9e31' type=&quot;text/javascript&quot;&gt;\n/* &lt;![CDATA[ */!function(){try{var t=&quot;currentScript&quot;in document?document.currentScript:function(){for(var t=document.getElementsByTagName(&quot;script&quot;),e=t.length;e--;)if(t[e].getAttribute(&quot;data-cfhash&quot;))return t[e]}();if(t&amp;&amp;t.previousSibling){var e,r,n,i,c=t.previousSibling,a=c.getAttribute(&quot;data-cfemail&quot;);if(a){for(e=&quot;&quot;,r=parseInt(a.substr(0,2),16),n=2;a.length-n;n+=2)i=parseInt(a.substr(n,2),16)^r,e+=String.fromCharCode(i);e=document.createTextNode(e),c.parentNode.replaceChild(e,c)}t.parentNode.removeChild(t);}}catch(u){}}()/* ]]&gt; */&lt;/script&gt;\nFormat settings, CABAC         : Yes\nFormat settings, ReFrames      : 4 frames\nCodec ID                       : V_MPEG4/ISO/AVC\nDuration                       : 2h 4mn\nBit rate                       : 701 Kbps\nWidth                          : 640 pixels\nHeight                         : 272 pixels\nDisplay aspect ratio           : 2.35:1\nFrame rate mode                : Constant\nFrame rate                     : 25.000 fps\nColor space                    : YUV\nChroma subsampling             : 4:2:0\nBit depth                      : 8 bits\nScan type                      : Progressive\nBits/(Pixel*Frame)             : 0.161\nStream size                    : 614 MiB (88%)\nTitle                          : GOPI SAHI\nLanguage                       : Hindi\nDefault                        : Yes\nForced                         : No\n\nAudio\nID                             : 2\nFormat                         : MPEG Audio\nFormat version                 : Version 1\nFormat profile                 : Layer 3\nMode                           : Joint stereo\nMode extension                 : MS Stereo\nCodec ID                       : A_MPEG/L3\nCodec ID/Hint                  : MP3\nDuration                       : 2h 4mn\nBit rate mode                  : Constant\nBit rate                       : 80.0 Kbps\nChannel(s)                     : 2 channels\nSampling rate                  : 32.0 KHz\nCompression mode               : Lossy\nStream size                    : 71.5 MiB (10%)\nTitle                          : GOPI SAHI\nWriting library                : LAME3.99r\nEncoding settings              : -m j -V 4 -q 2 -lowpass 13.5 -b 80\nLanguage                       : Hindi\nDefault                        : Yes\nForced                         : No\n[IMG]http://i.imgur.com/zbsiGU1.jpg[/IMG]\n[IMG]http://i.imgur.com/ZHo5PRM.jpg[/IMG]\n[IMG]http://i.imgur.com/30EPYSX.jpg[/IMG]\n[IMG]http://i.imgur.com/ALUvnre.jpg[/IMG]","torrent":{"xt":"urn:btih:ae0f7cc9d016ccb8512c8339ded4a66d0e52934b","amp;dn":"Balwinder+Singh+Famous+Ho+Gaya+2014++Hindi+DVDSCRRip+GOPI+SAHI+P","amp;tr":["udp%3A%2F%2Ftracker.openbittorrent.com%3A80","udp%3A%2F%2Fopen.demonii.com%3A1337","udp%3A%2F%2Ftracker.coppersurfer.tk%3A6969","udp%3A%2F%2Fexodus.desync.com%3A6969"],"infoHash":"ae0f7cc9d016ccb8512c8339ded4a66d0e52934b","infoHashBuffer":{"type":"Buffer","data":[174,15,124,201,208,22,204,184,81,44,131,57,222,212,166,109,14,82,147,75]},"announce":[],"urlList":[]}}